<?xml version="1.0" encoding="utf-8"?>
<!-- Generator: Adobe Illustrator 19.1.0, SVG Export Plug-In . SVG Version: 6.00 Build 0)  -->
<svg version="1.1" id="Layer_1" xmlns="http://www.w3.org/2000/svg" xmlns:xlink="http://www.w3.org/1999/xlink" x="0px" y="0px"
	 viewBox="0 0 627 130.5" style="enable-background:new 0 0 627 130.5;" xml:space="preserve">
<style type="text/css">
	.st0{fill:url(#SVGID_1_);}
	.st1{fill:url(#SVGID_2_);}
	.st2{fill:url(#SVGID_3_);}
	.st3{fill:url(#SVGID_4_);}
	.st4{fill:url(#SVGID_5_);}
	.st5{fill:url(#SVGID_6_);}
	.st6{fill:url(#SVGID_7_);}
	.st7{fill:url(#SVGID_8_);}
	.st8{fill:url(#SVGID_9_);stroke:url(#SVGID_10_);stroke-miterlimit:10;}
</style>
<g>
	<linearGradient id="SVGID_1_" gradientUnits="userSpaceOnUse" x1="311.7089" y1="125.7296" x2="-41.6195" y2="9.2805">
		<stop  offset="0.1465" style="stop-color:#1F185D"/>
		<stop  offset="0.1841" style="stop-color:#25326D"/>
		<stop  offset="0.2313" style="stop-color:#2D4C81"/>
		<stop  offset="0.2833" style="stop-color:#356495"/>
		<stop  offset="0.339" style="stop-color:#3D7BA8"/>
		<stop  offset="0.3994" style="stop-color:#4390BA"/>
		<stop  offset="0.4661" style="stop-color:#49A2CA"/>
		<stop  offset="0.5417" style="stop-color:#4EB1D6"/>
		<stop  offset="0.6313" style="stop-color:#51BCE0"/>
		<stop  offset="0.7487" style="stop-color:#53C5E7"/>
		<stop  offset="1" style="stop-color:#53C8EA"/>
	</linearGradient>
	<path class="st0" d="M164.9,104.5C164.9,104.5,164.6,104.6,164.9,104.5H176l5.7-5.7c2.3,1.5,5,2.3,7.9,2.3c6.2,0,11.4-3.8,13.6-9.2
		h58.9c1.4,0,2.8-0.3,4.1-0.8c1.3-0.5,2.4-1.3,3.4-2.3c1-1,1.8-2.1,2.3-3.4c0.5-1.3,0.8-2.7,0.8-4.2V71.1c0-1.5-0.3-2.9-0.8-4.2
		c-0.5-1.3-1.3-2.4-2.3-3.4c-1-1-2.1-1.7-3.4-2.3c-1.3-0.5-2.7-0.8-4.1-0.8h-27.9c-1.2,0-2.1-1-2.1-2.1v-4.8c0-1.2,1-2.1,2.1-2.1
		h25.1c0.6,0,1.1,0.2,1.5,0.6c0.4,0.4,0.6,0.9,0.6,1.5c0,1.2,1,2.1,2.1,2.1h7.1c1.2,0,2.1-0.9,2.1-2.1v-2.7c0-1.5-0.3-2.9-0.8-4.2
		c-0.5-1.3-1.3-2.4-2.3-3.4c-1-1-2.1-1.7-3.4-2.3c-1.3-0.5-2.7-0.8-4.1-0.8h-30.5c-1.5,0-2.9,0.3-4.2,0.8c-1.3,0.5-2.4,1.3-3.4,2.3
		c-1,1-1.7,2.1-2.3,3.4c-0.5,1.3-0.8,2.7-0.8,4.2V61c0,1.5,0.3,2.9,0.8,4.2c0.5,1.3,1.3,2.4,2.3,3.4c1,1,2.1,1.7,3.4,2.3
		c1.3,0.5,2.7,0.8,4.2,0.8h27.8c1.2,0,2.1,1,2.1,2.1v4.8c0,1.2-0.9,2.1-2.1,2.1h-56.2c-2.2-5.3-7.5-8.9-13.5-8.9
		c-1.2,0-2.4,0.1-3.6,0.4l-23.5-23.5h-22.2c-9.8-5.2-19.7-3.8-19.7-3.8c-2.6-5-8.7-10.4-20.8-11.8c-10.2-1.2-17.7,2.7-22.4,8.6
		c-2.9,3.7-5.1-2-13.5,2.6c-9.2,5-4.9,8.3-9.7,7.6c-8.5-1.1-18.8,2.1-26.2,7.8C20.5,65.3,17.4,71.1,17.4,79
		c0,10.9,8.3,25.5,20.7,25.5L164.9,104.5z M149.8,56.7h9.8l19.5,19.5c-0.2,0.2-0.4,0.4-0.6,0.6l-19.1-19.1h-8.7
		C150.4,57.3,150.1,57,149.8,56.7z M171.6,89.4c0-0.4,0-0.7-0.1-1.1h3.5c0,0.4,0.1,0.7,0.2,1.1H171.6z M174.9,86.3h-3.7
		c0-0.4-0.1-0.7-0.2-1.1h3.9C174.9,85.6,174.9,86,174.9,86.3z M171.6,91.4h4.2c0.2,0.6,0.5,1.2,0.8,1.7l-3.4,3.3H171
		C171.3,95,171.6,93.4,171.6,91.4z M175.3,83.2h-4.6c-0.1-0.3-0.2-0.7-0.3-1.1h5.1C175.4,82.5,175.4,82.9,175.3,83.2z M170.3,98.5
		h3.7l3.6-3.6c0.2,0.2,0.3,0.5,0.5,0.7l-3.9,3.9h-4.3C170,99.2,170.1,98.8,170.3,98.5z M152.6,59.7h6l18.7,18.7
		c-0.4,0.6-0.7,1.2-1,1.8h-7l0,0c0,0-0.9-3.4-7.1-11.7C156.4,60.5,152.6,59.7,152.6,59.7z M175.2,102.5h-7.5c0.3-0.3,0.6-0.6,0.9-1
		h6.4l4.4-4.4c0.2,0.2,0.4,0.4,0.6,0.6L175.2,102.5z M180.6,74.9l-20.1-20.2h-12.6c-0.3-0.3-0.7-0.7-1-1h13.8l20.8,20.6
		C181.2,74.4,180.9,74.6,180.6,74.9z M161.5,51.7h-16.8c-0.4-0.4-0.8-0.7-1.3-1h18.3l22.2,22.3c-0.2,0.1-0.4,0.2-0.6,0.3L161.5,51.7
		z M189.6,93.9c-4.1,0-7.4-3.3-7.4-7.4s3.3-7.4,7.4-7.4s7.4,3.3,7.4,7.4S193.7,93.9,189.6,93.9z"/>
	<linearGradient id="SVGID_2_" gradientUnits="userSpaceOnUse" x1="296.5001" y1="34.6234" x2="313.8335" y2="167.9567">
		<stop  offset="0.1044" style="stop-color:#1F185D"/>
		<stop  offset="0.1673" style="stop-color:#222967"/>
		<stop  offset="0.3456" style="stop-color:#2F5185"/>
		<stop  offset="0.5144" style="stop-color:#3B75A3"/>
		<stop  offset="0.6688" style="stop-color:#4594BE"/>
		<stop  offset="0.8061" style="stop-color:#4CADD3"/>
		<stop  offset="0.9212" style="stop-color:#52BFE2"/>
		<stop  offset="1" style="stop-color:#53C8EA"/>
	</linearGradient>
	<path class="st1" d="M312,50.2c1.4,0,2.8,0.3,4.1,0.8c1.3,0.6,2.4,1.3,3.3,2.3c0.9,1,1.7,2.1,2.2,3.3c0.6,1.2,0.8,2.6,0.8,4v16
		h-31.3V81h31.3v11h-31.9c-1.4,0-2.8-0.3-4-0.8c-1.2-0.6-2.4-1.3-3.3-2.3c-1-1-1.7-2.1-2.3-3.3c-0.6-1.2-0.8-2.6-0.8-4V60.7
		c0-1.4,0.3-2.8,0.8-4c0.6-1.2,1.3-2.4,2.3-3.3c1-1,2.1-1.7,3.3-2.3c1.2-0.6,2.6-0.8,4-0.8H312z M311.4,67v-5.8h-20.3V67H311.4z"/>
	<linearGradient id="SVGID_3_" gradientUnits="userSpaceOnUse" x1="345.0855" y1="28.3073" x2="363.7817" y2="172.1242">
		<stop  offset="9.609281e-002" style="stop-color:#1F185D"/>
		<stop  offset="0.1596" style="stop-color:#222967"/>
		<stop  offset="0.3395" style="stop-color:#2F5185"/>
		<stop  offset="0.5099" style="stop-color:#3B75A3"/>
		<stop  offset="0.6658" style="stop-color:#4594BE"/>
		<stop  offset="0.8043" style="stop-color:#4CADD3"/>
		<stop  offset="0.9205" style="stop-color:#52BFE2"/>
		<stop  offset="1" style="stop-color:#53C8EA"/>
	</linearGradient>
	<path class="st2" d="M362,50.2c1.4,0,2.8,0.3,4.1,0.8c1.3,0.6,2.4,1.3,3.3,2.3c0.9,1,1.7,2.1,2.2,3.3c0.6,1.2,0.8,2.6,0.8,4V92h-11
		V61.2h-20.3V92h-11V50.2H362z"/>
	<linearGradient id="SVGID_4_" gradientUnits="userSpaceOnUse" x1="393.1823" y1="22.0547" x2="410.5157" y2="155.388">
		<stop  offset="9.129462e-002" style="stop-color:#1F185D"/>
		<stop  offset="0.1551" style="stop-color:#222967"/>
		<stop  offset="0.336" style="stop-color:#2F5185"/>
		<stop  offset="0.5073" style="stop-color:#3B75A3"/>
		<stop  offset="0.664" style="stop-color:#4594BE"/>
		<stop  offset="0.8033" style="stop-color:#4CADD3"/>
		<stop  offset="0.9201" style="stop-color:#52BFE2"/>
		<stop  offset="1" style="stop-color:#53C8EA"/>
	</linearGradient>
	<path class="st3" d="M420.8,62.7h-11.1v-1.5h-20.3v4.3h20.9c1.4,0,2.8,0.3,4.1,0.8c1.3,0.6,2.4,1.3,3.3,2.3c0.9,1,1.7,2.1,2.2,3.3
		c0.6,1.2,0.8,2.6,0.8,4v5.5c0,1.4-0.3,2.8-0.8,4c-0.6,1.2-1.3,2.4-2.2,3.3c-0.9,1-2.1,1.7-3.3,2.3c-1.3,0.6-2.7,0.8-4.1,0.8h-21.5
		c-1.4,0-2.8-0.3-4-0.8c-1.2-0.6-2.4-1.3-3.3-2.3c-1-1-1.7-2.1-2.3-3.3c-0.6-1.2-0.8-2.6-0.8-4v-2.1h11V81h20.3v-4.3h-20.9
		c-1.4,0-2.8-0.3-4-0.8c-1.2-0.6-2.4-1.3-3.3-2.3c-1-1-1.7-2.1-2.3-3.3c-0.6-1.2-0.8-2.6-0.8-4v-5.5c0-1.4,0.3-2.8,0.8-4
		c0.6-1.2,1.3-2.4,2.3-3.3c1-1,2.1-1.7,3.3-2.3c1.2-0.6,2.6-0.8,4-0.8h21.5c1.4,0,2.8,0.3,4.1,0.8c1.3,0.6,2.4,1.3,3.3,2.3
		c0.9,1,1.7,2.1,2.2,3.3c0.6,1.2,0.8,2.6,0.8,4V62.7z"/>
	<linearGradient id="SVGID_5_" gradientUnits="userSpaceOnUse" x1="440.4429" y1="15.9108" x2="457.7762" y2="149.2441">
		<stop  offset="0.1491" style="stop-color:#1F185D"/>
		<stop  offset="0.2088" style="stop-color:#222967"/>
		<stop  offset="0.3782" style="stop-color:#2F5185"/>
		<stop  offset="0.5386" style="stop-color:#3B75A3"/>
		<stop  offset="0.6854" style="stop-color:#4594BE"/>
		<stop  offset="0.8158" style="stop-color:#4CADD3"/>
		<stop  offset="0.9251" style="stop-color:#52BFE2"/>
		<stop  offset="1" style="stop-color:#53C8EA"/>
	</linearGradient>
	<path class="st4" d="M458.3,50.2c1.4,0,2.8,0.3,4.1,0.8c1.3,0.6,2.4,1.3,3.3,2.3c0.9,1,1.7,2.1,2.2,3.3c0.6,1.2,0.8,2.6,0.8,4v16
		h-31.3V81h31.3v11h-31.9c-1.4,0-2.8-0.3-4-0.8c-1.2-0.6-2.4-1.3-3.3-2.3c-1-1-1.7-2.1-2.3-3.3c-0.6-1.2-0.8-2.6-0.8-4V60.7
		c0-1.4,0.3-2.8,0.8-4c0.6-1.2,1.3-2.4,2.3-3.3c1-1,2.1-1.7,3.3-2.3c1.2-0.6,2.6-0.8,4-0.8H458.3z M457.8,67v-5.8h-20.3V67H457.8z"
		/>
	<linearGradient id="SVGID_6_" gradientUnits="userSpaceOnUse" x1="495.1099" y1="8.8041" x2="512.4433" y2="142.1374">
		<stop  offset="0.2113" style="stop-color:#1F185D"/>
		<stop  offset="0.2667" style="stop-color:#222967"/>
		<stop  offset="0.4237" style="stop-color:#2F5185"/>
		<stop  offset="0.5723" style="stop-color:#3B75A3"/>
		<stop  offset="0.7084" style="stop-color:#4594BE"/>
		<stop  offset="0.8293" style="stop-color:#4CADD3"/>
		<stop  offset="0.9306" style="stop-color:#52BFE2"/>
		<stop  offset="1" style="stop-color:#53C8EA"/>
	</linearGradient>
	<path class="st5" d="M517.2,40.1h11.3V92H517l-29.2-34.7V92h-11.2V40.1h11.5l29,34.6V40.1z"/>
	<linearGradient id="SVGID_7_" gradientUnits="userSpaceOnUse" x1="548.6422" y1="9.6982" x2="565.9755" y2="143.0316">
		<stop  offset="0.2133" style="stop-color:#1F185D"/>
		<stop  offset="0.2685" style="stop-color:#222967"/>
		<stop  offset="0.4251" style="stop-color:#2F5185"/>
		<stop  offset="0.5734" style="stop-color:#3B75A3"/>
		<stop  offset="0.7091" style="stop-color:#4594BE"/>
		<stop  offset="0.8297" style="stop-color:#4CADD3"/>
		<stop  offset="0.9308" style="stop-color:#52BFE2"/>
		<stop  offset="1" style="stop-color:#53C8EA"/>
	</linearGradient>
	<path class="st6" d="M567.4,50.2c1.4,0,2.8,0.3,4.1,0.8c1.3,0.6,2.4,1.3,3.3,2.3c0.9,1,1.7,2.1,2.2,3.3c0.6,1.2,0.8,2.6,0.8,4v16
		h-31.3V81h31.3v11h-31.9c-1.4,0-2.8-0.3-4-0.8c-1.2-0.6-2.4-1.3-3.3-2.3c-1-1-1.7-2.1-2.3-3.3c-0.6-1.2-0.8-2.6-0.8-4V60.7
		c0-1.4,0.3-2.8,0.8-4c0.6-1.2,1.3-2.4,2.3-3.3c1-1,2.1-1.7,3.3-2.3c1.2-0.6,2.6-0.8,4-0.8H567.4z M566.8,67v-5.8h-20.3V67H566.8z"
		/>
	<linearGradient id="SVGID_8_" gradientUnits="userSpaceOnUse" x1="591.4766" y1="10.8831" x2="608.8099" y2="144.2164">
		<stop  offset="0.2542" style="stop-color:#1F185D"/>
		<stop  offset="0.3066" style="stop-color:#222967"/>
		<stop  offset="0.455" style="stop-color:#2F5185"/>
		<stop  offset="0.5956" style="stop-color:#3B75A3"/>
		<stop  offset="0.7242" style="stop-color:#4594BE"/>
		<stop  offset="0.8386" style="stop-color:#4CADD3"/>
		<stop  offset="0.9344" style="stop-color:#52BFE2"/>
		<stop  offset="1" style="stop-color:#53C8EA"/>
	</linearGradient>
	<path class="st7" d="M596.4,61.2V81h15.5v11h-16c-1.4,0-2.8-0.3-4.1-0.8c-1.3-0.6-2.4-1.3-3.3-2.3c-0.9-1-1.7-2.1-2.2-3.3
		c-0.6-1.2-0.8-2.6-0.8-4V37.8h11v12.4h15.5v11H596.4z"/>
</g>
<linearGradient id="SVGID_9_" gradientUnits="userSpaceOnUse" x1="170.1404" y1="85.2264" x2="170.1404" y2="85.2264">
	<stop  offset="0" style="stop-color:#1F185D"/>
	<stop  offset="4.397875e-002" style="stop-color:#25326D"/>
	<stop  offset="9.930313e-002" style="stop-color:#2D4C81"/>
	<stop  offset="0.1603" style="stop-color:#356495"/>
	<stop  offset="0.2255" style="stop-color:#3D7BA8"/>
	<stop  offset="0.2963" style="stop-color:#4390BA"/>
	<stop  offset="0.3744" style="stop-color:#49A2CA"/>
	<stop  offset="0.463" style="stop-color:#4EB1D6"/>
	<stop  offset="0.568" style="stop-color:#51BCE0"/>
	<stop  offset="0.7055" style="stop-color:#53C5E7"/>
	<stop  offset="1" style="stop-color:#53C8EA"/>
</linearGradient>
<linearGradient id="SVGID_10_" gradientUnits="userSpaceOnUse" x1="170.1404" y1="85.2264" x2="170.1404" y2="85.2264">
	<stop  offset="0" style="stop-color:#4FC9F5;stop-opacity:0.8"/>
	<stop  offset="9.799788e-002" style="stop-color:#50C4F1;stop-opacity:0.8"/>
	<stop  offset="0.222" style="stop-color:#4CB9EA;stop-opacity:0.8"/>
	<stop  offset="0.3599" style="stop-color:#47A8DE;stop-opacity:0.8"/>
	<stop  offset="0.5081" style="stop-color:#4291CE;stop-opacity:0.8"/>
	<stop  offset="0.6645" style="stop-color:#3B76BB;stop-opacity:0.8"/>
	<stop  offset="0.8277" style="stop-color:#3458A7;stop-opacity:0.8"/>
	<stop  offset="0.9937" style="stop-color:#2F3293;stop-opacity:0.8"/>
	<stop  offset="1" style="stop-color:#2E3192;stop-opacity:0.8"/>
</linearGradient>
<path class="st8" d="M170.1,85.2"/>
</svg>
